HIERARCHY
ROOT Hips
{
  OFFSET -274.024 67.2248 878.513
  CHANNELS 6 Xposition Yposition Zposition Zrotation Xrotation Yrotation
  JOINT Spine
  {
    OFFSET 0 8 0
    CHANNELS 6 Xposition Yposition Zposition Zrotation Xrotation Yrotation
    JOINT Spine1
    {
      OFFSET 0 8 0
      CHANNELS 6 Xposition Yposition Zposition Zrotation Xrotation Yrotation
      JOINT Spine2
      {
        OFFSET 0 8 0
        CHANNELS 6 Xposition Yposition Zposition Zrotation Xrotation Yrotation
        JOINT Spine3
        {
          OFFSET 0 8 0
          CHANNELS 6 Xposition Yposition Zposition Zrotation Xrotation Yrotation
          JOINT Neck
          {
            OFFSET 0 17 0
            CHANNELS 6 Xposition Yposition Zposition Zrotation Xrotation Yrotation
            JOINT Head
            {
              OFFSET 0 10.8 0
              CHANNELS 6 Xposition Yposition Zposition Zrotation Xrotation Yrotation
              End Site
              {
                OFFSET 0 20.25 0
              }
            }
          }
          JOINT LeftShoulder
          {
            OFFSET 5 17 0
            CHANNELS 6 Xposition Yposition Zposition Zrotation Xrotation Yrotation
            JOINT LeftShoulder2
            {
              OFFSET 6.45 0 0
              CHANNELS 6 Xposition Yposition Zposition Zrotation Xrotation Yrotation
              JOINT LeftArm
              {
                OFFSET 6.45 0 0
                CHANNELS 6 Xposition Yposition Zposition Zrotation Xrotation Yrotation
                JOINT LeftForeArm
                {
                  OFFSET 0 -32.4 -2
                  CHANNELS 6 Xposition Yposition Zposition Zrotation Xrotation Yrotation
                  JOINT LeftHand
                  {
                    OFFSET 0 -25.65 2
                    CHANNELS 6 Xposition Yposition Zposition Zrotation Xrotation Yrotation
                    JOINT LeftHandThumb1
                    {
                      OFFSET -0.5 -1.5 2.65
                      CHANNELS 6 Xposition Yposition Zposition Zrotation Xrotation Yrotation
                      JOINT LeftHandThumb2
                      {
                        OFFSET 0 -3.8 3.7
                        CHANNELS 6 Xposition Yposition Zposition Zrotation Xrotation Yrotation
                        JOINT LeftHandThumb3
                        {
                          OFFSET 0 -3 2.7
                          CHANNELS 6 Xposition Yposition Zposition Zrotation Xrotation Yrotation
                          End Site
                          {
                            OFFSET 0 -2.3 1.8
                          }
                        }
                      }
                    }
                    JOINT LeftHandIndex
                    {
                      OFFSET 0 -1.9 1.6
                      CHANNELS 6 Xposition Yposition Zposition Zrotation Xrotation Yrotation
                      JOINT LeftHandIndex1
                      {
                        OFFSET 0 -8.3 1.9
                        CHANNELS 6 Xposition Yposition Zposition Zrotation Xrotation Yrotation
                        JOINT LeftHandIndex2
                        {
                          OFFSET 0 -4.5 0
                          CHANNELS 6 Xposition Yposition Zposition Zrotation Xrotation Yrotation
                          JOINT LeftHandIndex3
                          {
                            OFFSET 0 -3.4 0
                            CHANNELS 6 Xposition Yposition Zposition Zrotation Xrotation Yrotation
                            End Site
                            {
                              OFFSET 0 -2.6 0
                            }
                          }
                        }
                      }
                    }
                    JOINT LeftHandMiddle
                    {
                      OFFSET -0.25 -2.2 0.4
                      CHANNELS 6 Xposition Yposition Zposition Zrotation Xrotation Yrotation
                      JOINT LeftHandMiddle1
                      {
                        OFFSET 0 -8.3 1
                        CHANNELS 6 Xposition Yposition Zposition Zrotation Xrotation Yrotation
                        JOINT LeftHandMiddle2
                        {
                          OFFSET 0 -4.65 0
                          CHANNELS 6 Xposition Yposition Zposition Zrotation Xrotation Yrotation
                          JOINT LeftHandMiddle3
                          {
                            OFFSET 0 -3.3 0
                            CHANNELS 6 Xposition Yposition Zposition Zrotation Xrotation Yrotation
                            End Site
                            {
                              OFFSET 0 -2.7 0
                            }
                          }
                        }
                      }
                    }
                    JOINT LeftHandRing
                    {
                      OFFSET -0.5 -2.15 -0.8
                      CHANNELS 6 Xposition Yposition Zposition Zrotation Xrotation Yrotation
                      JOINT LeftHandRing1
                      {
                        OFFSET 0 -7.75 -0.2
                        CHANNELS 6 Xposition Yposition Zposition Zrotation Xrotation Yrotation
                        JOINT LeftHandRing2
                        {
                          OFFSET 0 -3.8 0
                          CHANNELS 6 Xposition Yposition Zposition Zrotation Xrotation Yrotation
                          JOINT LeftHandRing3
                          {
                            OFFSET 0 -3.4 0
                            CHANNELS 6 Xposition Yposition Zposition Zrotation Xrotation Yrotation
                            End Site
                            {
                              OFFSET 0 -2.6 0
                            }
                          }
                        }
                      }
                    }
                    JOINT LeftHandPinky
                    {
                      OFFSET -0.75 -1.75 -1.85
                      CHANNELS 6 Xposition Yposition Zposition Zrotation Xrotation Yrotation
                      JOINT LeftHandPinky1
                      {
                        OFFSET 0 -7.15 -1
                        CHANNELS 6 Xposition Yposition Zposition Zrotation Xrotation Yrotation
                        JOINT LeftHandPinky2
                        {
                          OFFSET 0 -3 0
                          CHANNELS 6 Xposition Yposition Zposition Zrotation Xrotation Yrotation
                          JOINT LeftHandPinky3
                          {
                            OFFSET 0 -2.35 0
                            CHANNELS 6 Xposition Yposition Zposition Zrotation Xrotation Yrotation
                            End Site
                            {
                              OFFSET 0 -2.1 0
                            }
                          }
                        }
                      }
                    }
                  }
                }
              }
            }
          }
          JOINT RightShoulder
          {
            OFFSET -5 17 0
            CHANNELS 6 Xposition Yposition Zposition Zrotation Xrotation Yrotation
            JOINT RightShoulder2
            {
              OFFSET -6.45 0 0
              CHANNELS 6 Xposition Yposition Zposition Zrotation Xrotation Yrotation
              JOINT RightArm
              {
                OFFSET -6.45 0 0
                CHANNELS 6 Xposition Yposition Zposition Zrotation Xrotation Yrotation
                JOINT RightForeArm
                {
                  OFFSET 0 -32.4 -2
                  CHANNELS 6 Xposition Yposition Zposition Zrotation Xrotation Yrotation
                  JOINT RightHand
                  {
                    OFFSET 0 -25.65 2
                    CHANNELS 6 Xposition Yposition Zposition Zrotation Xrotation Yrotation
                    JOINT RightHandThumb1
                    {
                      OFFSET 0.5 -1.5 2.65
                      CHANNELS 6 Xposition Yposition Zposition Zrotation Xrotation Yrotation
                      JOINT RightHandThumb2
                      {
                        OFFSET 0 -3.8 3.7
                        CHANNELS 6 Xposition Yposition Zposition Zrotation Xrotation Yrotation
                        JOINT RightHandThumb3
                        {
                          OFFSET 0 -3 2.7
                          CHANNELS 6 Xposition Yposition Zposition Zrotation Xrotation Yrotation
                          End Site
                          {
                            OFFSET 0 -2.3 1.8
                          }
                        }
                      }
                    }
                    JOINT RightHandIndex
                    {
                      OFFSET 0 -1.9 1.6
                      CHANNELS 6 Xposition Yposition Zposition Zrotation Xrotation Yrotation
                      JOINT RightHandIndex1
                      {
                        OFFSET 0 -8.3 1.9
                        CHANNELS 6 Xposition Yposition Zposition Zrotation Xrotation Yrotation
                        JOINT RightHandIndex2
                        {
                          OFFSET 0 -4.5 0
                          CHANNELS 6 Xposition Yposition Zposition Zrotation Xrotation Yrotation
                          JOINT RightHandIndex3
                          {
                            OFFSET 0 -3.4 0
                            CHANNELS 6 Xposition Yposition Zposition Zrotation Xrotation Yrotation
                            End Site
                            {
                              OFFSET 0 -2.6 0
                            }
                          }
                        }
                      }
                    }
                    JOINT RightHandMiddle
                    {
                      OFFSET 0.25 -2.2 0.4
                      CHANNELS 6 Xposition Yposition Zposition Zrotation Xrotation Yrotation
                      JOINT RightHandMiddle1
                      {
                        OFFSET 0 -8.3 1
                        CHANNELS 6 Xposition Yposition Zposition Zrotation Xrotation Yrotation
                        JOINT RightHandMiddle2
                        {
                          OFFSET 0 -4.65 0
                          CHANNELS 6 Xposition Yposition Zposition Zrotation Xrotation Yrotation
                          JOINT RightHandMiddle3
                          {
                            OFFSET 0 -3.3 0
                            CHANNELS 6 Xposition Yposition Zposition Zrotation Xrotation Yrotation
                            End Site
                            {
                              OFFSET 0 -2.7 0
                            }
                          }
                        }
                      }
                    }
                    JOINT RightHandRing
                    {
                      OFFSET 0.5 -2.15 -0.8
                      CHANNELS 6 Xposition Yposition Zposition Zrotation Xrotation Yrotation
                      JOINT RightHandRing1
                      {
                        OFFSET 0 -7.75 -0.2
                        CHANNELS 6 Xposition Yposition Zposition Zrotation Xrotation Yrotation
                        JOINT RightHandRing2
                        {
                          OFFSET 0 -3.8 0
                          CHANNELS 6 Xposition Yposition Zposition Zrotation Xrotation Yrotation
                          JOINT RightHandRing3
                          {
                            OFFSET 0 -3.4 0
                            CHANNELS 6 Xposition Yposition Zposition Zrotation Xrotation Yrotation
                            End Site
                            {
                              OFFSET 0 -2.6 0
                            }
                          }
                        }
                      }
                    }
                    JOINT RightHandPinky
                    {
                      OFFSET 0.75 -1.75 -1.85
                      CHANNELS 6 Xposition Yposition Zposition Zrotation Xrotation Yrotation
                      JOINT RightHandPinky1
                      {
                        OFFSET 0 -7.15 -1
                        CHANNELS 6 Xposition Yposition Zposition Zrotation Xrotation Yrotation
                        JOINT RightHandPinky2
                        {
                          OFFSET 0 -3 0
                          CHANNELS 6 Xposition Yposition Zposition Zrotation Xrotation Yrotation
                          JOINT RightHandPinky3
                          {
                            OFFSET 0 -2.35 0
                            CHANNELS 6 Xposition Yposition Zposition Zrotation Xrotation Yrotation
                            End Site
                            {
                              OFFSET 0 -2.1 0
                            }
                          }
                        }
                      }
                    }
                  }
                }
              }
            }
          }
        }
      }
    }
  }
  JOINT LeftUpLeg
  {
    OFFSET 8 0 0
    CHANNELS 6 Xposition Yposition Zposition Zrotation Xrotation Yrotation
    JOINT LeftLeg
    {
      OFFSET 0 -45 -1
      CHANNELS 6 Xposition Yposition Zposition Zrotation Xrotation Yrotation
      JOINT LeftFoot
      {
        OFFSET 0 -41 -2
        CHANNELS 6 Xposition Yposition Zposition Zrotation Xrotation Yrotation
        JOINT LeftToeBase
        {
          OFFSET 0 -7.5 12.5
          CHANNELS 6 Xposition Yposition Zposition Zrotation Xrotation Yrotation
          JOINT LeftFootToe
          {
            OFFSET 0 0 4
            CHANNELS 6 Xposition Yposition Zposition Zrotation Xrotation Yrotation
            End Site
            {
              OFFSET 0 0 0
            }
          }
        }
      }
    }
  }
  JOINT RightUpLeg
  {
    OFFSET -8 0 0
    CHANNELS 6 Xposition Yposition Zposition Zrotation Xrotation Yrotation
    JOINT RightLeg
    {
      OFFSET 0 -45 -1
      CHANNELS 6 Xposition Yposition Zposition Zrotation Xrotation Yrotation
      JOINT RightFoot
      {
        OFFSET 0 -41 -2
        CHANNELS 6 Xposition Yposition Zposition Zrotation Xrotation Yrotation
        JOINT RightToeBase
        {
          OFFSET 0 -7.5 12.5
          CHANNELS 6 Xposition Yposition Zposition Zrotation Xrotation Yrotation
          JOINT RightFootToe
          {
            OFFSET 0 0 4
            CHANNELS 6 Xposition Yposition Zposition Zrotation Xrotation Yrotation
            End Site
            {
              OFFSET 0 0 0
            }
          }
        }
      }
    }
  }
}
MOTION
Frames:	3
Frame Time:	0.0111111
-267.448 93.2004 872.826 0.0429673 0.06295 178.002 0 8 0 0.223558 -2.86223 -2.76178 -2.84217e-14 8 0 0.113487 1.24965 2.60476 0 8 1.13687e-13 0.0635877 0.634769 1.3051 8.52651e-14 8 0 0.0635698 0.634564 1.30468 0 17 0 3.21625 -7.60003 16.6276 0 10.8 1.13687e-13 0.939451 -9.2984 39.4378 5 17 0 -3.58303 -2.55154 -5.6445 6.45 2.84217e-14 1.13687e-13 -0.948779 0.000820378 0.814735 6.45 0 1.13687e-13 39.8866 -14.081 26.854 0 -32.4 -2 -46.1723 -35.768 -40.3109 0 -25.65 2 -22.5619 -28.3818 -7.15071 -0.5 -1.5 2.65 19.1751 15.3002 -4.13695 -2.84217e-14 -3.8 3.7 -0.147525 19.7619 0.00418692 -2.84217e-14 -3 2.7 -0.0724127 29.8586 0.0266906 -5.68434e-14 -1.9 1.6 -3.31043e-32 7.95139e-16 2.38542e-15 -5.68434e-14 -8.3 1.9 -10.6128 24.746 2.71186 5.68434e-14 -4.5 2.84217e-14 -0.296609 -0.00808133 0.00381377 -5.68434e-14 -3.4 0 -0.291211 -0.0047568 0.00372846 -0.25 -2.2 0.4 -3.31043e-32 7.95139e-16 2.38542e-15 0 -8.3 1 -7.2981 15.3962 1.2671 5.68434e-14 -4.65 0 -1.30473e-07 0.00219698 0.00340266 -5.68434e-14 -3.3 0 -6.73955e-08 0.00218217 0.00176956 -0.5 -2.15 -0.8 -3.31043e-32 7.95139e-16 2.38542e-15 5.68434e-14 -7.75 -0.2 -2.68163 3.77191 0.206073 0 -3.8 -1.42109e-14 1.15193e-07 0.00226222 -0.00291752 0 -3.4 -1.42109e-14 8.57712e-08 0.00153015 -0.00321168 -0.75 -1.75 -1.85 -3.31043e-32 7.95139e-16 2.38542e-15 0 -7.15 -1 -0.13172 -1.85993 0.00985545 0 -3 -2.84217e-14 1.25038e-08 0.000524496 -0.00136592 5.68434e-14 -2.35 0 1.59084e-08 0.000242502 -0.00375866 -5 17 -1.13687e-13 -2.82215 -4.58306 3.06699 -6.45 0 -1.13687e-13 -1.95241 0.382066 -2.00491 -6.45 0 0 -30.8451 -18.7799 -3.75968 0 -32.4 -2 112.609 -71.0631 106.019 0 -25.65 2 -8.85056 11.9146 24.4465 0.5 -1.5 2.65 120.417 43.2258 166.257 0 -3.8 3.7 0.0990285 -0.402014 0.00940772 -1.13687e-13 -3 2.7 0.0119988 36.0362 0.00328341 -2.13163e-14 -1.9 1.6 1.57245e-31 -3.18055e-15 2.83268e-15 3.19744e-14 -8.3 1.9 0.144936 -3.30198 0.0126846 0 -4.5 0 -3.51056e-09 -0.000376696 -0.00053396 7.10543e-15 -3.4 0 -3.28108e-09 -0.000370644 -0.000507205 0.25 -2.2 0.4 1.57245e-31 -3.18055e-15 2.83268e-15 -3.55271e-15 -8.3 1 0.787988 1.63931 -0.0758835 7.10543e-15 -4.65 1.13687e-13 8.24729 -0.127815 -0.0131384 0 -3.3 -5.68434e-14 7.12791 -0.1022 0.00247486 0.5 -2.15 -0.8 1.57245e-31 -3.18055e-15 2.83268e-15 -7.10543e-15 -7.75 -0.2 1.3623 7.40779 -0.258409 -7.10543e-15 -3.8 -5.68434e-14 -1.0913e-08 -0.00104415 -0.00059883 7.10543e-15 -3.4 0 -8.10811e-09 -0.00080243 -0.000578942 0.75 -1.75 -1.85 1.57245e-31 -3.18055e-15 2.83268e-15 1.06581e-14 -7.15 -1 1.17906 9.33501 -0.265781 2.13163e-14 -3 0 -2.10818e-10 -1.5992e-05 -0.000755316 -1.42109e-14 -2.35 0 9.08554e-10 7.03317e-05 -0.000740152 8 -1.42109e-14 -1.13687e-13 -0.587535 -6.98972 -10.9932 2.84217e-14 -45 -1 -0.0613875 8.83707 1.90251 0 -41 -2 -0.723795 -1.76728 -2.10666 2.84217e-14 -7.5 12.5 -9.70628e-20 -3.88251e-19 -0 -2.84217e-14 0 4 -1.05702 -4.11337 35.7516 -8 0 0 -2.88166 -1.38059 10.5472 0 -45 -1 -0.00326849 4.59655 0.505836 0 -41 -2 3.11092 -3.72973 14.0801 -1.13687e-13 -7.5 12.5 -1.94126e-19 3.88251e-19 -3.18055e-15 0 0 4 -2.1512 0.788337 8.4889 
-267.476 93.2207 872.819 0.027919 0.0630385 177.925 -2.84217e-14 8 -1.13687e-13 0.229213 -2.85592 -2.7745 0 8 0 0.104424 1.25 2.60458 -2.84217e-14 8 0 0.059085 0.634588 1.30483 -5.68434e-14 8 0 0.059069 0.634383 1.30441 0 17 1.13687e-13 3.24706 -7.58118 16.5478 0 10.8 -1.13687e-13 0.936694 -9.32995 39.2423 5 17 0 -3.49734 -2.55764 -5.64281 6.45 2.84217e-14 0 -0.96066 0.00251658 0.777786 6.45 0 -1.13687e-13 39.7795 -13.9363 26.8321 1.13687e-13 -32.4 -2 -46.3221 -35.7999 -40.2521 -2.84217e-14 -25.65 2 -22.4196 -27.877 -7.11505 -0.5 -1.5 2.65 19.3602 15.0666 -3.4098 -2.84217e-14 -3.8 3.7 -0.148296 19.0484 0.00980717 0 -3 2.7 -0.032453 30.1787 0.0330054 5.68434e-14 -1.9 1.6 -9.54166e-15 2.38542e-15 1.59028e-15 5.68434e-14 -8.3 1.9 -10.6274 24.7574 2.71755 0 -4.5 0 -0.612044 -0.00836596 0.00850806 0 -3.4 -2.84217e-14 -0.596063 -0.00491588 0.00816394 -0.25 -2.2 0.4 -9.54166e-15 2.38542e-15 1.59028e-15 -1.13687e-13 -8.3 1 -7.30577 15.5969 1.28231 -5.68434e-14 -4.65 1.42109e-14 -1.31159e-07 0.00219071 0.00343032 0 -3.3 -1.42109e-14 -6.7612e-08 0.00217596 0.00178031 -0.5 -2.15 -0.8 -9.54166e-15 2.38542e-15 1.59028e-15 -5.68434e-14 -7.75 -0.2 -2.66763 4.33651 0.219824 -2.84217e-14 -3.8 0 1.14547e-07 0.00226416 -0.00289867 -5.68434e-14 -3.4 2.84217e-14 8.53125e-08 0.00152811 -0.00319874 -0.75 -1.75 -1.85 -9.54166e-15 2.38542e-15 1.59028e-15 0 -7.15 -1 -0.103336 -1.01672 0.00923109 -5.68434e-14 -3 -2.84217e-14 7.80587e-09 0.000327288 -0.00136651 5.68434e-14 -2.35 0 -2.34511e-09 -3.6066e-05 -0.00372553 -5 17 1.13687e-13 -2.70603 -4.57437 3.02077 -6.45 0 1.13687e-13 -1.94026 0.371397 -1.97553 -6.45 2.84217e-14 0 -31.2286 -18.4277 -4.42629 0 -32.4 -2 113.074 -70.9214 106.032 0 -25.65 2 -9.41436 11.7619 23.7544 0.5 -1.5 2.65 121.68 44.3692 166.006 1.13687e-13 -3.8 3.7 0.099036 -0.402018 0.00940887 0 -3 2.7 0.0120071 36.0768 0.00326636 7.10543e-15 -1.9 1.6 1.39149e-15 -3.18055e-15 4.77083e-15 -7.10543e-15 -8.3 1.9 0.173173 -3.5949 0.0187753 1.42109e-14 -4.5 0 -3.5436e-09 -0.000378464 -0.000536467 1.42109e-14 -3.4 0 -3.31196e-09 -0.000372384 -0.000509586 0.25 -2.2 0.4 1.39149e-15 -3.18055e-15 4.77083e-15 -1.77636e-14 -8.3 1 0.773311 1.32985 -0.0668762 7.10543e-15 -4.65 -5.68434e-14 10.681 -0.147071 0.00418894 0 -3.3 0 8.97269 -0.110826 0.0200617 0.5 -2.15 -0.8 1.39149e-15 -3.18055e-15 4.77083e-15 -2.4869e-14 -7.75 -0.2 1.32016 7.19247 -0.245977 0 -3.8 0 -1.15539e-08 -0.00106305 -0.000622725 1.42109e-14 -3.4 0 -8.52442e-09 -0.000811203 -0.000602085 0.75 -1.75 -1.85 1.39149e-15 -3.18055e-15 4.77083e-15 3.19744e-14 -7.15 -1 1.14519 9.19873 -0.257156 2.84217e-14 -3 5.68434e-14 -3.42575e-10 -2.48882e-05 -0.000788651 -1.42109e-14 -2.35 0 8.72639e-10 6.47127e-05 -0.000772625 8 1.42109e-14 -1.13687e-13 -0.590235 -6.82263 -11.0031 8.52651e-14 -45 -1 -0.0565663 8.50912 1.9058 0 -41 -2 -0.704556 -1.60689 -2.00933 -5.68434e-14 -7.5 12.5 1.61642e-35 5.82377e-19 -1.59028e-15 2.84217e-14 -3.46945e-18 4 -1.04547 -4.10919 35.7505 -8 1.42109e-14 0 -2.92172 -1.38094 10.4911 5.68434e-14 -45 -1 -0.00372891 4.58053 0.514226 -5.68434e-14 -41 -2 3.13434 -3.71557 14.2004 0 -7.5 12.5 -1.94126e-19 1.16475e-18 -0 0 6.93889e-18 4 -2.16641 0.768912 8.48961 
-267.5 93.2412 872.808 0.0129788 0.0631273 177.86 -5.68434e-14 8 1.13687e-13 0.229207 -2.8567 -2.78925 2.84217e-14 8 0 0.0959767 1.25117 2.60502 2.84217e-14 8 1.13687e-13 0.0549002 0.634425 1.30468 -5.68434e-14 8 0 0.0548852 0.634221 1.30426 0 17 0 3.27356 -7.56802 16.4315 0 10.8 0 0.940745 -9.37011 38.9584 5 17 1.13687e-13 -3.41391 -2.57328 -5.63166 6.45 5.68434e-14 -1.13687e-13 -0.971277 0.00382281 0.738754 6.45 0 0 39.6366 -13.8408 26.803 0 -32.4 -2 -46.4 -35.8216 -40.1113 0 -25.65 2 -22.2005 -27.2672 -7.02759 -0.5 -1.5 2.65 19.0741 14.8859 -2.41701 0 -3.8 3.7 -0.150396 18.4263 0.0175648 0 -3 2.7 0.0212909 28.3767 0.123171 0 -1.9 1.6 9.54166e-15 7.95139e-16 5.56597e-15 -5.68434e-14 -8.3 1.9 -10.7277 24.8437 2.75282 -1.13687e-13 -4.5 0 -0.940049 -0.00866333 0.012711 0 -3.4 2.84217e-14 -0.912642 -0.00860783 0.0121082 -0.25 -2.2 0.4 9.54166e-15 7.95139e-16 5.56597e-15 0 -8.3 1 -7.36808 15.8402 1.31007 0 -4.65 0 -1.31839e-07 0.00218446 0.00345798 5.68434e-14 -3.3 2.84217e-14 -6.78247e-08 0.00216977 0.00179101 -0.5 -2.15 -0.8 9.54166e-15 7.95139e-16 5.56597e-15 5.68434e-14 -7.75 -0.2 -2.67169 4.92167 0.235304 5.68434e-14 -3.8 -2.13163e-14 1.13903e-07 0.00226614 -0.00287985 -2.84217e-14 -3.4 7.10543e-15 8.48564e-08 0.00152615 -0.00318573 -0.75 -1.75 -1.85 9.54166e-15 7.95139e-16 5.56597e-15 0 -7.15 -1 -0.0753173 -0.174873 0.00876507 0 -3 1.42109e-14 4.14252e-09 0.000173624 -0.00136702 5.68434e-14 -2.35 -1.42109e-14 -1.74551e-08 -0.000270839 -0.00369261 -5 17 1.13687e-13 -2.60922 -4.57365 2.96907 -6.45 0 1.13687e-13 -1.92815 0.361146 -1.94176 -6.45 2.84217e-14 1.13687e-13 -31.6262 -18.1667 -5.02255 -1.42109e-14 -32.4 -2 113.574 -70.8766 106.092 0 -25.65 2 -9.96271 11.6479 23.0512 0.5 -1.5 2.65 122.979 45.4329 165.706 0 -3.8 3.7 0.0990436 -0.402022 0.00941006 1.13687e-13 -3 2.7 0.0120135 36.1429 0.00325042 7.10543e-15 -1.9 1.6 1.98785e-15 3.18055e-15 1.31198e-14 0 -8.3 1.9 0.211395 -3.94944 0.0202681 0 -4.5 0 -3.5767e-09 -0.000380227 -0.000538966 -2.13163e-14 -3.4 0 -3.34289e-09 -0.000374118 -0.00051196 0.25 -2.2 0.4 1.98785e-15 3.18055e-15 1.31198e-14 1.42109e-14 -8.3 1 0.768572 0.98673 -0.0612307 7.10543e-15 -4.65 0 13.2072 -0.14633 0.0221315 0 -3.3 0 10.868 -0.103823 0.0350254 0.5 -2.15 -0.8 1.98785e-15 3.18055e-15 1.31198e-14 2.84217e-14 -7.75 -0.2 1.28587 6.97937 -0.236184 -7.10543e-15 -3.8 0 -1.22128e-08 -0.00108409 -0.00064546 2.13163e-14 -3.4 5.68434e-14 -8.95155e-09 -0.000821788 -0.00062411 0.75 -1.75 -1.85 1.98785e-15 3.18055e-15 1.31198e-14 -2.13163e-14 -7.15 -1 1.11679 9.08265 -0.25032 7.10543e-15 -3 -5.68434e-14 -4.94095e-10 -3.44694e-05 -0.000821294 -7.10543e-15 -2.35 5.68434e-14 8.18792e-10 5.83206e-05 -0.000804403 8 1.42109e-14 0 -0.591591 -6.64615 -11.0147 -2.84217e-14 -45 -1 -0.0515174 8.16467 1.90942 -5.68434e-14 -41 -2 -0.685861 -1.43939 -1.9258 2.84217e-14 -7.5 12.5 -4.85314e-20 -1.94126e-19 3.18055e-15 0 0 4 -1.04292 -4.10581 35.7497 -8 -1.42109e-14 2.27374e-13 -2.96291 -1.37247 10.4202 0 -45 -1 -0.00410844 4.55197 0.523086 0 -41 -2 3.15596 -3.69564 14.3246 0 -7.5 12.5 1.16475e-18 7.76503e-19 -3.18055e-15 -1.13687e-13 0 4 -2.18209 0.745805 8.48915 
